<?xml version="1.0" standalone="no"?>
<!DOCTYPE svg PUBLIC "-//W3C//DTDSVG20010904//EN"  "http://www.w3.org/TR/2001/REC-SVG-20010904/DTD/svg10.dtd">
<svg version="1.0" xmlns="http://www.w3.org/2000/svg" width="200.000000pt" height="200.000000pt" viewBox="0 0 200.000000 200.000000" preserveAspectRatio="xMidYMid meet">
    <metadata>
        Created by potrace 1.16, written by Peter Selinger 2001-2019
    </metadata>
    <g transform="translate(0.000000,200.000000) scale(0.100000,-0.100000)" fill="black" stroke="none">
        <path d="M394 1892 c-31 -21 -34 -54 -34 -427 0 -373 3 -406 34 -427 6 -4 116
            -8 244 -8 l232 0 0 -85 0 -85 -46 0 c-38 0 -45 -3 -42 -17 3 -16 21 -18 208
            -18 176 0 205 2 205 15 0 10 -13 16 -42 18 l-43 3 0 85 0 84 233 0 c225 0 235
            1 253 21 18 20 19 42 19 414 0 372 -1 394 -19 414 -19 21 -22 21 -605 21 -322
            0 -591 -4 -597 -8z m1164 -38 l22 -15 0 -374 0 -374 -22 -15 c-20 -14 -91 -16
            -575 -16 -488 0 -553 2 -567 16 -14 13 -16 63 -16 389 0 326 2 376 16 389 14
            14 79 16 567 16 484 0 555 -2 575 -16z m-488 -909 l0 -85 -80 0 -80 0 0 85 0
            85 80 0 80 0 0 -85z"/>
        <path d="M1051 1678 c-5 -13 -45 -114 -90 -226 -45 -112 -79 -207 -76 -213 4
            -5 12 -9 19 -9 13 0 186 421 186 453 0 25 -29 21 -39 -5z"/>
        <path d="M645 1556 c-90 -51 -130 -79 -130 -91 0 -12 40 -40 130 -91 72 -40
            136 -73 143 -74 6 0 12 8 12 18 0 13 -34 37 -115 82 -63 35 -114 65 -112 66 1
            2 54 32 117 67 107 59 137 88 100 94 -8 1 -73 -30 -145 -71z"/>
        <path d="M1175 1620 c-11 -17 1 -26 120 -91 l114 -63 -47 -27 c-26 -15 -78
            -44 -116 -65 -71 -40 -89 -60 -63 -70 22 -8 282 140 282 161 0 11 -45 42 -132
            91 -138 77 -148 81 -158 64z"/>
        <path d="M782 630 c-36 -22 -38 -43 -4 -48 21 -3 22 -7 24 -225 l3 -221 32
            -18 c40 -24 139 -26 181 -4 88 46 126 166 82 263 -24 54 -70 83 -132 83 -60 0
            -78 -7 -78 -32 0 -18 4 -19 34 -14 67 13 125 -74 109 -164 -14 -83 -63 -121
            -127 -100 l-36 12 0 244 0 244 -27 0 c-16 0 -43 -9 -61 -20z"/>
        <path d="M1563 634 c-41 -20 -45 -54 -8 -54 l25 0 -2 -211 c-3 -222 -2 -218
            -46 -235 -1 -1 0 -9 4 -18 5 -12 20 -16 69 -16 35 0 67 4 70 10 3 5 -1 23 -10
            39 -19 37 -21 135 -2 129 6 -3 31 -37 53 -77 23 -40 49 -80 57 -88 21 -22 85
            -19 109 4 24 25 15 57 -12 43 -31 -16 -37 -12 -68 45 -30 54 -30 54 -8 61 58
            17 90 87 66 145 -16 38 -37 49 -94 49 -37 0 -51 -6 -80 -33 l-35 -34 -3 126
            -3 126 -25 3 c-14 1 -40 -5 -57 -14z"/>
        <path d="M173 606 c-35 -7 -66 -15 -69 -19 -13 -13 6 -37 31 -37 l25 0 0 -196
            0 -196 -30 -11 c-33 -12 -34 -15 -21 -36 13 -20 264 -10 308 12 50 27 73 63
            73 118 0 44 -4 53 -40 88 -39 38 -39 39 -20 56 64 58 42 167 -43 211 -39 21
            -141 26 -214 10z m162 -52 c92 -43 56 -174 -47 -174 -32 0 -39 -3 -36 -17 2
            -11 14 -19 28 -21 95 -10 138 -50 126 -117 -8 -42 -35 -65 -84 -72 -34 -5 -42
            -2 -60 22 -21 26 -22 39 -22 199 0 121 4 176 12 184 16 16 43 15 83 -4z"/>
        <path d="M572 440 c-34 -21 -35 -40 -1 -40 18 0 19 -8 19 -114 0 -145 6 -175
            37 -187 28 -10 90 11 99 35 8 22 -5 41 -19 27 -31 -31 -36 -12 -39 142 l-3
            152 -30 3 c-17 1 -44 -6 -63 -18z"/>
        <path d="M1262 443 c-42 -21 -69 -55 -83 -107 -23 -86 11 -190 73 -222 38 -20
        127 -20 165 -1 42 22 69 55 56 68 -9 9 -23 6 -55 -10 -56 -26 -88 -27 -121 0
        -57 44 -61 167 -7 221 33 33 62 36 90 8 26 -26 25 -51 -1 -84 -17 -22 -28 -26
        -70 -26 -36 0 -49 -4 -49 -15 0 -21 33 -35 82 -35 80 0 131 47 131 121 0 35
        -6 48 -32 71 -27 24 -40 28 -89 28 -32 0 -71 -8 -90 -17z"/>
    </g>
</svg>
